<svg xmlns="http://www.w3.org/2000/svg" xmlns:xlink="http://www.w3.org/1999/xlink" width="500" zoomAndPan="magnify" viewBox="0 0 375 374.999991" height="500" preserveAspectRatio="xMidYMid meet" version="1.2"><g id="6f0adf5ebb"><path style=" stroke:none;fill-rule:evenodd;fill:#006838;fill-opacity:1;" d="M 311.265625 274.921875 C 316.917969 258.371094 302.691406 226.796875 290.570312 199.53125 C 290.210938 204.976562 287.410156 210.0625 284.925781 215.804688 C 285.824219 204.066406 287.28125 190.992188 280.125 176.785156 C 272.460938 161.558594 248.117188 130.269531 237.953125 115.464844 C 237.75 121.175781 238.429688 132.847656 236.425781 134.085938 C 236.605469 124.722656 233.011719 109.683594 225.097656 99.054688 C 205.683594 72.960938 193.808594 64.789062 168.585938 45.21875 C 169.597656 47.925781 168.472656 52.765625 169.480469 55.46875 C 161.382812 43.125 163.914062 41.105469 150.914062 32.855469 C 146.359375 29.960938 136.828125 25.359375 132.929688 23.253906 C 133.757812 27.773438 133.445312 31.652344 133.445312 31.652344 C 122.203125 14.613281 104.855469 15.472656 87.738281 15.949219 C 93.933594 21.796875 100.628906 30.523438 106.84375 37.695312 L 120.972656 41.988281 C 120.972656 41.761719 113.25 40.949219 108.851562 42.488281 C 111.492188 46.378906 115.390625 50.542969 118.617188 55.039062 C 126.496094 66.027344 128.765625 68.820312 139.804688 77.253906 C 136.355469 75.074219 133.621094 76.457031 130.167969 74.277344 C 140.375 89.5 152.71875 108.441406 168.675781 119.039062 C 165.597656 117.402344 161.808594 118.253906 158.726562 116.617188 C 164.757812 126.265625 166.230469 128.621094 172.453125 138.480469 C 179.96875 150.394531 185.996094 150.542969 198.011719 158.808594 C 193.332031 157.832031 189.71875 159.703125 185.75 157.65625 C 196.804688 177.972656 215.601562 204.027344 229.957031 220.722656 C 237.378906 230.125 249.910156 233.066406 259.902344 238.6875 C 248.175781 236.035156 242.867188 234.804688 240.050781 233.933594 C 259.429688 261.277344 275.605469 274.457031 299.300781 277.023438 C 258.222656 198.582031 205.792969 114.335938 133.113281 48.65625 C 215.636719 115.816406 285.742188 222.070312 321.140625 318.351562 C 328.421875 338.15625 328.710938 331.753906 325.078125 317.140625 C 321.042969 300.929688 315.859375 285.4375 311.265625 274.921875 Z M 311.265625 274.921875 "/><path style=" stroke:none;fill-rule:nonzero;fill:#006838;fill-opacity:1;" d="M 319.796875 332.835938 C 272.367188 350.960938 226.574219 352.632812 201.035156 347.351562 C 194.308594 345.964844 189 344.097656 185.441406 341.929688 C 181.9375 339.796875 180.128906 337.429688 180.351562 334.996094 C 180.382812 334.679688 181 334.054688 182.285156 333.085938 C 190.308594 327.039062 200.222656 322.085938 209.503906 317.445312 C 228.105469 308.152344 244.398438 300.011719 241.84375 285.527344 C 238.300781 265.453125 195.949219 267.878906 151.992188 270.398438 C 134.941406 271.375 117.648438 272.367188 102.265625 272.0625 C 77.453125 271.574219 68.90625 267.875 69.011719 262.574219 C 69.085938 258.671875 80.535156 250.574219 91.324219 242.9375 C 104.714844 233.464844 117.3125 224.554688 114.375 217.777344 C 109.535156 206.59375 92.378906 207.136719 76.320312 207.640625 C 66.414062 207.953125 56.925781 208.253906 51.066406 205.777344 C 45.335938 203.359375 43.046875 198.421875 47.261719 188.445312 L 45.035156 190.199219 C 39.957031 202.226562 42.222656 207.964844 48.367188 210.5625 C 54.296875 213.066406 63.816406 212.765625 73.757812 212.449219 C 89.714844 211.949219 106.761719 211.410156 111.515625 222.390625 C 112.546875 224.777344 103.238281 231.363281 93.34375 238.363281 C 80.207031 247.65625 66.269531 257.519531 66.085938 266.785156 C 65.972656 272.445312 74.605469 276.390625 99.671875 276.882812 C 115.023438 277.1875 132.351562 276.191406 149.4375 275.210938 C 193.246094 272.703125 235.460938 270.285156 238.9375 289.992188 C 240.421875 298.398438 227.042969 305.085938 211.773438 312.714844 C 202.441406 317.378906 192.472656 322.359375 184.234375 328.570312 C 179.96875 331.78125 177.78125 335.332031 177.4375 339.035156 C 177.179688 341.855469 179.050781 344.46875 182.710938 346.695312 C 186.316406 348.894531 191.652344 350.773438 198.382812 352.164062 C 223.984375 357.457031 269.882812 355.777344 317.429688 337.609375 Z M 319.796875 332.835938 "/></g></svg>